<svg xmlns="http://www.w3.org/2000/svg" xmlns:xlink="http://www.w3.org/1999/xlink" width="40" height="80" viewBox="0 0 40 40">
    <defs>
        <linearGradient id="a" x1="0%" x2="99.125%" y1="50%" y2="50%">
            <stop offset="0%" stop-color="#FF6535"/>
            <stop offset="100%" stop-color="#FF3F3D"/>
        </linearGradient>
        <path id="b" d="M11.345.173v11.684H.028V.173h11.317z"/>
    </defs>
    <g fill="none" fill-rule="evenodd">
        <path fill="url(#a)" d="M20 0C8.954 0 0 8.954 0 20s8.954 20 20 20 20-8.954 20-20c0-6.088-2.72-11.54-7.01-15.207v7.742l-5.356-3.09V5.213C27.562.933 23.426 0 20 0zm7.363 21.626l-14.083-8.13-.003-.001a5.083 5.083 0 0 1-2.509-4.385c0-1.023.303-1.976.824-2.774l18.753 10.828a5.12 5.12 0 0 1 2.644 4.463c0 1.873-1.043 3.58-2.667 4.475l-11.785 6.804c-1.474.851-3.225 1.028-4.795.311a5.13 5.13 0 0 1-2.976-4.627V18.2l5.356 3.087v6.83l11.24-6.49z"/>
    </g>
</svg>
