<svg xmlns="http://www.w3.org/2000/svg" xmlns:xlink="http://www.w3.org/1999/xlink" width="156" height="40" viewBox="0 0 156 40">
    <defs>
        <linearGradient id="a" x1="0%" x2="99.125%" y1="50%" y2="50%">
            <stop offset="0%" stop-color="#FF6535"/>
            <stop offset="100%" stop-color="#FF3F3D"/>
        </linearGradient>
        <path id="b" d="M11.345.173v11.684H.028V.173h11.317z"/>
    </defs>
    <g fill="none" fill-rule="evenodd">
        <path fill="url(#a)" d="M20 0C8.954 0 0 8.954 0 20s8.954 20 20 20 20-8.954 20-20c0-6.088-2.72-11.54-7.01-15.207v7.742l-5.356-3.09V5.213C27.562.933 23.426 0 20 0zm7.363 21.626l-14.083-8.13-.003-.001a5.083 5.083 0 0 1-2.509-4.385c0-1.023.303-1.976.824-2.774l18.753 10.828a5.12 5.12 0 0 1 2.644 4.463c0 1.873-1.043 3.58-2.667 4.475l-11.785 6.804c-1.474.851-3.225 1.028-4.795.311a5.13 5.13 0 0 1-2.976-4.627V18.2l5.356 3.087v6.83l11.24-6.49z"/>
        <path fill="#FFF" d="M50.695 23.065l1.727-2.108c.976 1.371 2.439 2.108 3.983 2.108 1.24 0 2.153-.655 2.153-1.617 0-.613-.447-1.146-1.36-1.575-.204-.103-.692-.287-1.484-.594a15.765 15.765 0 0 1-1.768-.818c-1.584-.92-2.377-2.17-2.377-3.765 0-1.27.467-2.312 1.421-3.151.956-.84 2.196-1.269 3.7-1.269 1.95 0 3.595.676 4.936 2.046l-1.604 2.21c-.833-.9-2.175-1.411-3.292-1.411-1.199 0-1.93.572-1.93 1.452 0 .593.406 1.085 1.219 1.494l1.483.654c.833.348 1.442.614 1.83.799 1.705.839 2.559 2.087 2.559 3.764 0 1.351-.509 2.456-1.524 3.315-1.016.86-2.337 1.29-3.983 1.29-2.336 0-4.45-1.003-5.689-2.824M71.926 22.349c.57-.614.853-1.371.853-2.272 0-.9-.284-1.657-.853-2.27-.57-.615-1.3-.922-2.215-.922-.894 0-1.625.307-2.194.921-.569.614-.853 1.37-.853 2.271 0 .901.284 1.658.853 2.272.569.613 1.3.92 2.194.92.915 0 1.646-.307 2.215-.92m2.195-6.446c1.036 1.125 1.544 2.517 1.544 4.154s-.53 3.028-1.565 4.153c-1.036 1.126-2.336 1.699-3.9 1.699-1.362 0-2.52-.512-3.475-1.555v5.872H63.86V14.491h2.845v1.372c.954-1.106 2.112-1.659 3.514-1.659 1.565 0 2.865.574 3.902 1.699M83.039 23.249c.873 0 1.585-.307 2.173-.92.59-.635.895-1.392.895-2.272 0-.88-.305-1.637-.895-2.25-.588-.615-1.3-.922-2.173-.922-.874 0-1.605.307-2.195.921-.59.614-.873 1.371-.873 2.25 0 .88.284 1.638.873 2.272.59.614 1.32.92 2.195.92m-4.267-7.345c1.117-1.146 2.54-1.719 4.267-1.719 1.726 0 3.149.573 4.267 1.719 1.117 1.125 1.665 2.517 1.665 4.154 0 1.657-.548 3.049-1.665 4.174-1.118 1.125-2.54 1.698-4.267 1.698-1.727 0-3.15-.573-4.267-1.698-1.118-1.125-1.667-2.517-1.667-4.174 0-1.637.549-3.029 1.667-4.154M111.42 13.448h-4.287V10.52h11.622v2.927h-4.287v12.458h-3.047zM118.755 20.937V14.49h2.865v6.446c0 1.412.833 2.332 2.215 2.332 1.381 0 2.215-.92 2.215-2.332V14.49h2.865v6.446c0 3.13-1.91 4.972-5.08 4.972-3.15 0-5.08-1.842-5.08-4.972M134.464 22.349c.57.613 1.3.92 2.194.92.894 0 1.626-.307 2.195-.92.568-.635.852-1.392.852-2.292 0-.9-.284-1.658-.852-2.272-.57-.613-1.3-.92-2.195-.92-.894 0-1.625.307-2.194.941-.569.614-.853 1.37-.853 2.25 0 .9.284 1.658.853 2.293m6.583-6.446c1.057 1.125 1.585 2.517 1.585 4.174 0 1.658-.528 3.05-1.585 4.175-1.056 1.104-2.377 1.657-3.942 1.657-1.402 0-2.54-.553-3.454-1.657v1.39h-2.784v-15.55h2.866v5.689c.914-1.044 2.031-1.577 3.372-1.577 1.565 0 2.886.574 3.942 1.699"/>
        <g transform="translate(144.011 14.032)">
            <mask id="c" fill="#fff">
                <use xlink:href="#b"/>
            </mask>
            <path fill="#FFF" d="M2.933 4.9h5.629c-.264-1.453-1.3-2.333-2.763-2.333-1.443 0-2.52.88-2.866 2.333m8.311 2.148h-8.31c.407 1.576 1.483 2.374 3.23 2.374 1.2 0 2.621-.47 3.576-1.125l1.138 2.025c-1.401 1.023-3.007 1.535-4.835 1.535-1.951 0-3.434-.573-4.471-1.698C.536 9.033.028 7.642.028 6.025c0-1.698.529-3.09 1.605-4.194C2.71.726 4.092.173 5.8.173c1.605 0 2.946.512 3.982 1.514 1.036 1.003 1.564 2.353 1.564 4.093 0 .389-.04.818-.1 1.268" mask="url(#c)"/>
        </g>
        <path fill="#FFF" d="M105.721 23.232a2.85 2.85 0 0 1-.523.058c-1.036 0-1.564-.655-1.564-1.965v-4.42h2.081v-2.414h-2.081v-3.949h-2.845v3.95H98.96v2.414h1.808v4.604c0 2.885 1.321 4.4 3.86 4.4a6.9 6.9 0 0 0 1.093-.093v-2.585zM97.51 14.492h-.782c-1.361 0-2.377.286-3.047 1.493V14.49h-2.744v11.415h2.866V20.6c0-2.43 1.076-3.694 2.702-3.694h1.005v-2.414z"/>
    </g>
</svg>
